<svg width="197" height="41" viewBox="0 0 197 41" fill="none" xmlns="http://www.w3.org/2000/svg">
<g clip-path="url(#clip0_364_425)">
<path fill-rule="evenodd" clip-rule="evenodd" d="M0.0185547 3.03434V0H17.9074V3.03434H0.0185547ZM150.236 0.312492H154.552L162.472 7.85306L169.679 0.312492H174.013L164.83 10.1039L197.005 40.9093H192.261L162.727 12.3548L154.289 21.3672H149.545L160.35 10.0677L150.236 0.312492Z" fill="#F57C00"/>
<path fill-rule="evenodd" clip-rule="evenodd" d="M29.9028 12.9888H23.6415V21.34H19.5566V0.022644H21.9103H23.6415H35.3962H36.6821H37.8772C40.0718 0.022644 41.8711 1.77079 41.8711 3.91294V9.0985C41.8711 11.2407 40.0718 12.9888 37.8772 12.9888H36.6821H35.3962H34.2739M23.6415 3.04793V9.9454H35.3962H36.6821C37.6818 9.9454 38.4815 9.16643 38.4815 8.21537V4.79154C38.4815 3.84048 37.6772 3.0434 36.6821 3.0434H35.3962H23.6415V3.04793ZM47.0919 0.022644H51.1768H68.1705V3.04793H51.1768V8.77242H62.0728V11.7977H51.1768V18.3012H68.1705V21.3446H51.1768H47.0919V18.3012V11.7977V8.77242V3.04793V0.022644ZM70.2743 0.022644H74.3773L84.3645 13.2832L94.3472 0.022644H98.4321V21.3446H94.3472V4.98628L84.36 18.2468L74.3728 4.98628V21.3446H70.2697V0.022644H70.2743ZM113.536 0.022644H109.451H99.5544V3.11586H109.451V21.34H113.536V3.11586H123.414V0.022644H113.536ZM125.608 0.022644H129.693H146.687V3.04793H129.693V8.77242H140.589V11.7977H129.693V18.3012H146.687V21.3446H129.693H125.608V18.3012V11.7977V8.77242V3.04793V0.022644Z" fill="#2A3039"/>
<path d="M3.7577 31.4122C3.3942 31.5572 2.92165 31.6523 2.42183 31.6523C1.57669 31.6523 1.12231 31.2492 1.12231 30.3298V28.636H0V30.3298C0 31.7202 0.731548 32.635 2.30824 32.635C2.83532 32.635 3.38511 32.5309 3.7577 32.395V35.0172H4.88002V28.6315H3.7577V31.4122ZM7.20189 35.0217H11.5957V34.0344H8.32874V32.2637H11.5276V31.2764H8.32874V29.6188H11.5957V28.6315H7.20189V35.0217ZM17.0301 32.8388L15.2898 28.636H13.704V35.0217H14.8263V30.28L16.7847 35.0172H17.2664L19.2383 30.28V35.0172H20.3607V28.6315H18.7749L17.0301 32.8388ZM22.6871 35.0217H23.8094V29.6188H27.1445V35.0172H28.2668V28.6315H22.6871V35.0217ZM30.5887 35.0217H31.7156V28.636H30.5932V35.0217H30.5887ZM37.0272 28.5273C35.1052 28.5273 33.7512 29.9268 33.7512 31.8289C33.7512 33.7355 35.1052 35.1304 37.0272 35.1304C38.9493 35.1304 40.3033 33.731 40.3033 31.8289C40.3033 29.9268 38.9493 28.5273 37.0272 28.5273ZM37.0272 34.1386C35.7277 34.1386 34.9053 33.1423 34.9053 31.8334C34.9053 30.511 35.7323 29.5282 37.0272 29.5282C38.3131 29.5282 39.1492 30.5155 39.1492 31.8334C39.1492 33.1423 38.3131 34.1386 37.0272 34.1386ZM46.8054 31.2492H43.4703V28.636H42.348V35.0217H43.4703V32.2365H46.8054V35.0217H47.9278V28.636H46.8054V31.2492ZM53.6802 35.0217H54.8025V29.6188H58.1376V35.0172H59.2599V28.6315H53.6756V35.0217H53.6802ZM64.5716 28.5273C62.6496 28.5273 61.2955 29.9268 61.2955 31.8289C61.2955 33.7355 62.6496 35.1304 64.5716 35.1304C66.4936 35.1304 67.8477 33.731 67.8477 31.8289C67.8522 29.9268 66.4936 28.5273 64.5716 28.5273ZM64.5716 34.1386C63.2721 34.1386 62.4497 33.1423 62.4497 31.8334C62.4497 30.511 63.2766 29.5282 64.5716 29.5282C65.8575 29.5282 66.6936 30.5155 66.6936 31.8334C66.6981 33.1423 65.862 34.1386 64.5716 34.1386ZM76.1355 28.636H73.3184V35.0217H74.4407V32.6396H76.131C77.4669 32.6396 78.2257 31.7202 78.2257 30.6378C78.2302 29.5554 77.4805 28.636 76.1355 28.636ZM75.981 31.6523H74.4452V29.6188H75.981C76.6172 29.6188 77.0761 30.0219 77.0761 30.6333C77.0806 31.2492 76.6172 31.6523 75.981 31.6523ZM80.1204 35.0217H84.5143V34.0344H81.2473V32.2637H84.4461V31.2764H81.2473V29.6188H84.5143V28.6315H80.1204V35.0217ZM89.9486 32.8388L88.2083 28.636H86.6226V35.0217H87.7449V30.28L89.7032 35.0172H90.1849L92.1569 30.28V35.0172H93.2792V28.6315H91.6934L89.9486 32.8388ZM98.5909 28.5273C96.6689 28.5273 95.3148 29.9268 95.3148 31.8289C95.3148 33.7355 96.6689 35.1304 98.5909 35.1304C100.513 35.1304 101.867 33.731 101.867 31.8289C101.871 29.9268 100.513 28.5273 98.5909 28.5273ZM98.5909 34.1386C97.2914 34.1386 96.4689 33.1423 96.4689 31.8334C96.4689 30.511 97.2959 29.5282 98.5909 29.5282C99.8768 29.5282 100.713 30.5155 100.713 31.8334C100.717 33.1423 99.8813 34.1386 98.5909 34.1386ZM108.369 31.2492H105.034V28.636H103.912V35.0217H105.034V32.2365H108.369V35.0217H109.491V28.636H108.369V31.2492ZM111.404 29.6188H113.345V35.0172H114.467V29.6188H116.407V28.6315H111.4V29.6188H111.404ZM120.692 32.3588L118.924 28.636H117.647L120.06 33.3279C119.751 33.9212 119.533 34.1431 119.011 34.1431C118.702 34.1431 118.406 33.9801 118.175 33.7808L117.77 34.7002C117.97 34.913 118.511 35.1395 119.088 35.1395C120.183 35.1395 120.674 34.596 121.069 33.8261L123.741 28.636H122.464L120.692 32.3588ZM128.412 29.6188H130.352V35.0172H131.474V29.6188H133.414V28.6315H128.407V29.6188H128.412ZM135.327 35.0217H139.721V34.0344H136.454V32.2637H139.653V31.2764H136.454V29.6188H139.721V28.6315H135.327V35.0217ZM147.318 28.636H145.964L144.319 30.982L142.666 28.636H141.321L143.579 31.7474L141.175 35.0217H142.52L144.315 32.5218L146.11 35.0217H147.455L145.06 31.7383L147.318 28.636ZM153.598 31.2492H150.263V28.636H149.14V35.0217H150.263V32.2365H153.598V35.0217H154.72V28.636H153.598V31.2492ZM157.042 35.0217H158.164V28.636H157.042V35.0217ZM165.516 28.636H164.121L161.613 31.6794V28.636H160.491V35.0217H161.613V32.9837L162.172 32.3316L164.326 35.0217H165.712L162.917 31.6523L165.516 28.636ZM171.818 28.636L168.542 33.0698V28.636H167.42V35.0217H168.506L171.85 30.4657V35.0217H172.973V28.636H171.818Z" fill="#576171"/>
</g>
<defs>
<clipPath id="clip0_364_425">
<rect width="197" height="40.9093" fill="white"/>
</clipPath>
</defs>
</svg>
