<svg width="65" height="93" viewBox="0 0 65 93" fill="none" xmlns="http://www.w3.org/2000/svg">
<g clip-path="url(#clip0_571_3479)">
<path fill-rule="evenodd" clip-rule="evenodd" d="M32.5 0C50.4593 0 65 14.4031 65 32.1923C65 44.9738 57.4889 55.9908 46.6556 61.1892L32.5 93L18.3444 61.1892C7.51111 55.9908 0 44.9738 0 32.1923C0 14.4031 14.5407 0 32.5 0Z" fill="#F57C00"/>
<path fill-rule="evenodd" clip-rule="evenodd" d="M32.4259 53.4462C44.2222 53.4462 53.8519 43.9077 53.8519 32.2231C53.8519 20.5385 44.2222 11 32.4259 11C20.6296 11 11 20.5385 11 32.2231C11 43.9077 20.6296 53.4462 32.4259 53.4462Z" fill="white"/>
<path fill-rule="evenodd" clip-rule="evenodd" d="M32.0857 34.4102H26.5872V41.7592H23V23H25.0669H26.5872H36.9099H38.0391H39.0886C41.0158 23 42.596 24.5384 42.596 26.4234V30.9867C42.596 32.8718 41.0158 34.4102 39.0886 34.4102H38.0391H36.9099H35.9243M26.5872 25.6622V31.732H36.9099H38.0391C38.917 31.732 39.6193 31.0465 39.6193 30.2096V27.1966C39.6193 26.3597 38.913 25.6583 38.0391 25.6583H36.9099H26.5872V25.6622Z" fill="#2A3039"/>
</g>
<defs>
<clipPath id="clip0_571_3479">
<rect width="65" height="93" fill="white"/>
</clipPath>
</defs>
</svg>
