<svg width="24" height="24" viewBox="0 0 24 24" fill="none" xmlns="http://www.w3.org/2000/svg">
<path fill-rule="evenodd" clip-rule="evenodd" d="M9.12997 20.6314C9.15392 20.6314 9.17334 20.612 9.17334 20.588C9.17334 20.5641 9.15392 20.5447 9.12997 20.5447C9.10602 20.5447 9.08661 20.5641 9.08661 20.588C9.08661 20.612 9.10602 20.6314 9.12997 20.6314ZM7.17334 20.588C7.17334 19.5074 8.04935 18.6314 9.12997 18.6314C10.2106 18.6314 11.0866 19.5074 11.0866 20.588C11.0866 21.6687 10.2106 22.5447 9.12997 22.5447C8.04935 22.5447 7.17334 21.6687 7.17334 20.588Z" fill="#0E091F"/>
<path fill-rule="evenodd" clip-rule="evenodd" d="M19.6529 20.6314C19.6769 20.6314 19.6963 20.612 19.6963 20.588C19.6963 20.5641 19.6769 20.5447 19.6529 20.5447C19.629 20.5447 19.6096 20.5641 19.6096 20.588C19.6096 20.612 19.629 20.6314 19.6529 20.6314ZM17.6963 20.588C17.6963 19.5074 18.5723 18.6314 19.6529 18.6314C20.7335 18.6314 21.6096 19.5074 21.6096 20.588C21.6096 21.6687 20.7335 22.5447 19.6529 22.5447C18.5723 22.5447 17.6963 21.6687 17.6963 20.588Z" fill="#0E091F"/>
<path fill-rule="evenodd" clip-rule="evenodd" d="M0.477051 0.455322H5.30359C5.78022 0.455322 6.1906 0.791708 6.28414 1.25907L7.08062 5.23849H22.523C22.821 5.23849 23.1035 5.37142 23.2935 5.60105C23.4835 5.83068 23.5611 6.13307 23.5053 6.42582L21.9733 14.4595C21.8401 15.1301 21.4752 15.7325 20.9426 16.1613C20.4127 16.5878 19.7504 16.8154 19.0705 16.8048H9.78925C9.10934 16.8154 8.44702 16.5878 7.91716 16.1613C7.38479 15.7327 7.02004 15.1306 6.8867 14.4603C6.88664 14.46 6.88675 14.4606 6.8867 14.4603L5.28884 6.47698C5.2822 6.44984 5.27666 6.42226 5.27229 6.39431L4.4839 2.45532H0.477051V0.455322ZM7.48092 7.23849L8.84821 14.0698C8.88997 14.2801 9.00434 14.4689 9.1713 14.6033C9.33826 14.7377 9.54718 14.8091 9.76148 14.805L9.78064 14.8048H19.0791L19.0983 14.805C19.3126 14.8091 19.5215 14.7377 19.6885 14.6033C19.8546 14.4696 19.9687 14.2819 20.011 14.0728C20.0112 14.0718 20.0114 14.0708 20.0116 14.0698L21.3143 7.23849H7.48092Z" fill="#0E091F"/>
</svg>
