<svg width="48" height="48" viewBox="0 0 48 48" fill="none" xmlns="http://www.w3.org/2000/svg">
<path fill-rule="evenodd" clip-rule="evenodd" d="M9.90039 12V21.3H10.0004L14.9004 17.3L19.8004 21.3H20.0004V12H9.90039Z" fill="#F57C00"/>
<path d="M18.3 37.7H27.9V11H2V37.7H8.8" stroke="#E0E4E9" stroke-width="2" stroke-miterlimit="10"/>
<path d="M27.9004 16H38.4004L43.2004 24.2H32.7004" stroke="#E0E4E9" stroke-width="2" stroke-miterlimit="10"/>
<path d="M27.9004 37.7004H32.8004M42.3004 37.7004H43.2004C45.2004 37.7004 46.7004 36.1004 46.7004 34.2004V27.9004C46.7004 25.9004 45.1004 24.4004 43.2004 24.4004" stroke="#E0E4E9" stroke-width="2" stroke-miterlimit="10"/>
<path d="M13.4998 42.4C16.0998 42.4 18.1998 40.3 18.1998 37.7C18.1998 35.1 16.0998 33 13.4998 33C10.8998 33 8.7998 35.1 8.7998 37.7C8.7998 40.3 10.8998 42.4 13.4998 42.4Z" stroke="#E0E4E9" stroke-width="2" stroke-miterlimit="10"/>
<path d="M37.4998 42.4C40.0998 42.4 42.1998 40.3 42.1998 37.7C42.1998 35.1 40.0998 33 37.4998 33C34.8998 33 32.7998 35.1 32.7998 37.7C32.7998 40.3 34.8998 42.4 37.4998 42.4Z" stroke="#E0E4E9" stroke-width="2" stroke-miterlimit="10"/>
</svg>
