<svg width="48" height="48" viewBox="0 0 48 48" fill="none" xmlns="http://www.w3.org/2000/svg">
<path fill-rule="evenodd" clip-rule="evenodd" d="M6 18.8L24 11.1L42 18.8C42 18.3 42 17.9 42 17.4V11.7L24 4L6 11.7V17.4C6 17.8 6 18.3 6 18.8Z" stroke="#E0E4E9" stroke-width="2" stroke-miterlimit="10"/>
<path d="M24 43.3C11.3 37.7 6 28.7 6 17.4V11.7L24 4L42 11.7V17.4C42 28.7 36.7 37.7 24 43.3Z" stroke="#E0E4E9" stroke-width="2" stroke-miterlimit="10"/>
<path d="M32.9002 21.1998L21.5002 32.5998L15.2002 26.2998L17.6002 23.8998L21.5002 27.7998L30.5002 18.7998L32.9002 21.1998Z" fill="#F57C00"/>
</svg>
