<svg width="16" height="16" viewBox="0 0 16 16" fill="none" xmlns="http://www.w3.org/2000/svg">
<path d="M8.00293 0C10.1756 0 10.448 0.00914721 11.3047 0.0498047C12.1549 0.0873023 12.7367 0.224954 13.2461 0.421875C13.7774 0.621862 14.262 0.937516 14.6621 1.34375C15.0716 1.74375 15.3837 2.22528 15.5869 2.7627C15.7839 3.26914 15.9215 3.85396 15.959 4.7041C15.9965 5.5574 16 5.82967 16 8.00195C16 10.1737 15.9906 10.4458 15.9531 11.2988C15.9156 12.149 15.7779 12.7307 15.5811 13.2402C15.1652 14.3154 14.3147 15.1653 13.2393 15.5811C12.7329 15.778 12.1481 15.9156 11.2979 15.9531C10.4447 15.9907 10.1724 16 8 16C5.82754 16 5.55531 15.9907 4.70215 15.9531C3.85182 15.9156 3.2703 15.778 2.76074 15.5811C2.22939 15.3811 1.74486 15.0654 1.34473 14.6592C0.938328 14.2591 0.62215 13.7778 0.418945 13.2402C0.221969 12.7338 0.0843652 12.149 0.046875 11.2988C0.00939747 10.4458 1.05672e-06 10.1737 0 8.00195C0 5.8299 0.0091515 5.55743 0.0498047 4.70117C0.0872949 3.85103 0.224899 3.26927 0.421875 2.75977C0.622028 2.22845 0.938345 1.74383 1.34473 1.34375C1.74483 0.934432 2.22604 0.622051 2.76367 0.418945C3.27009 0.222129 3.85477 0.084358 4.70508 0.046875C5.55844 0.00939753 5.83048 5.30932e-07 8.00293 0ZM8.00977 1.45312C5.87502 1.45312 5.62108 1.46253 4.77734 1.5C3.99899 1.53443 3.57335 1.666 3.29199 1.77539C2.94502 1.90344 2.63239 2.10649 2.37305 2.37207C2.10421 2.62841 1.90069 2.94412 1.77246 3.29102C1.66304 3.57232 1.53236 3.99496 1.49805 4.77637C1.46045 5.61684 1.45117 5.87331 1.45117 8.00781C1.45117 10.1426 1.46043 10.3963 1.49805 11.2402C1.53239 12.0182 1.66306 12.4434 1.77246 12.7246C1.90069 13.0715 2.1044 13.3841 2.37012 13.6436C2.62639 13.9091 2.94225 14.1121 3.28906 14.2402C3.57039 14.3496 3.99223 14.4813 4.77344 14.5156C5.6144 14.5532 5.87107 14.5625 8.00586 14.5625C10.1411 14.5625 10.3952 14.5532 11.2393 14.5156C12.0174 14.4813 12.4423 14.3496 12.7236 14.2402C13.4207 13.9714 13.9742 13.4186 14.2432 12.7217C14.3526 12.4404 14.4841 12.0177 14.5186 11.2363C14.556 10.3927 14.5654 10.1424 14.5654 8.00781C14.5654 5.87334 14.556 5.61999 14.5186 4.77637C14.4841 3.99801 14.3526 3.57232 14.2432 3.29102C14.1149 2.94414 13.9112 2.63145 13.6455 2.37207C13.3892 2.10658 13.0733 1.90341 12.7266 1.77539C12.4452 1.66603 12.0233 1.53443 11.2422 1.5C10.4012 1.46252 10.1478 1.45313 8.00977 1.45312ZM8.00293 3.8916C10.2726 3.8916 12.1143 5.7327 12.1143 8.00195C12.1141 10.2711 10.2725 12.1123 8.00293 12.1123C5.73354 12.1122 3.89275 10.271 3.89258 8.00195C3.89258 5.73275 5.73343 3.89167 8.00293 3.8916ZM8.00293 5.33594C6.53064 5.33604 5.33691 6.5298 5.33691 8.00195C5.33707 9.47398 6.53074 10.6679 8.00293 10.668C9.47533 10.668 10.6698 9.47404 10.6699 8.00195C10.6699 6.52974 9.47543 5.33594 8.00293 5.33594ZM12.2764 2.76953C12.8063 2.76953 13.2361 3.19869 13.2363 3.72852C13.2363 4.25841 12.8065 4.68848 12.2764 4.68848C11.7465 4.68834 11.3174 4.25832 11.3174 3.72852C11.3176 3.19878 11.7466 2.76967 12.2764 2.76953Z" fill="black"/>
</svg>
