<svg width="24" height="26" viewBox="0 0 24 26" fill="none" xmlns="http://www.w3.org/2000/svg">
<path d="M18.9794 16.8859C18.2927 16.2079 17.4354 16.2079 16.7531 16.8859C16.2327 17.4019 15.7122 17.918 15.2005 18.4429C15.0605 18.5872 14.9424 18.6178 14.7718 18.5216C14.4351 18.3379 14.0764 18.1892 13.7528 17.988C12.2438 17.0389 10.9798 15.8187 9.86013 14.4454C9.30467 13.7631 8.81044 13.0327 8.46491 12.2105C8.39493 12.0443 8.40805 11.9349 8.54364 11.7993C9.06411 11.2964 9.57147 10.7803 10.0832 10.2642C10.7961 9.54693 10.7961 8.70719 10.0788 7.98554C9.67206 7.57442 9.2653 7.17205 8.85855 6.76093C8.43867 6.34106 8.02316 5.91682 7.59891 5.50133C6.91223 4.83216 6.05498 4.83216 5.37268 5.5057C4.84783 6.02179 4.34485 6.551 3.81125 7.05834C3.31702 7.52631 3.06772 8.09926 3.01523 8.76842C2.93213 9.85745 3.19893 10.8853 3.57507 11.8868C4.34485 13.9599 5.51701 15.8012 6.93848 17.4894C8.85855 19.7724 11.1504 21.5788 13.8315 22.8821C15.0386 23.4682 16.2895 23.9186 17.6498 23.993C18.5857 24.0455 19.3993 23.8093 20.0509 23.0789C20.4971 22.5803 21 22.1255 21.4724 21.6487C22.1722 20.9402 22.1766 20.083 21.4812 19.3832C20.6501 18.5478 19.8148 17.7168 18.9794 16.8859Z" stroke="#F57C00" stroke-width="1.5"/>
</svg>
