<svg width="20" height="21" viewBox="0 0 20 21" fill="none" xmlns="http://www.w3.org/2000/svg">
<g clip-path="url(#clip0_364_420)">
<path d="M8.2643 12.3677C9.32027 13.3797 10.0683 14.0836 10.7282 14.3916C11.2562 14.6996 11.7842 14.4796 12.0922 14.1716C12.4002 13.7756 12.7082 13.4677 13.0602 13.0717C13.6762 12.3677 16.8881 13.5997 17.856 13.7756C18.604 13.9956 19 14.3916 19 14.8756C19 15.4916 19 16.0636 19 16.5916C18.164 18.3955 16.8881 19.4075 14.9521 19.4955C12.1802 19.5835 9.01228 18.3955 5.49238 14.9636C2.10448 11.4437 0.916517 8.3198 1.00451 5.50388C1.00451 3.61194 2.06048 2.29198 3.86443 1.5C4.39242 1.5 5.0524 1.5 5.58039 1.5C6.10837 1.5 6.54836 1.98398 6.63635 2.68796C6.94434 3.69994 8.2203 6.82384 7.47233 7.48383C7.16434 7.79182 6.72435 8.09981 6.41636 8.4078C6.10837 8.71579 5.88837 9.19977 6.19637 9.81575C6.54836 10.5637 7.16434 11.2677 8.2643 12.3677Z" fill="#20232B"/>
</g>
<defs>
<clipPath id="clip0_364_420">
<rect width="18" height="18" fill="white" transform="translate(1 1.5)"/>
</clipPath>
</defs>
</svg>
