<svg width="24" height="25" viewBox="0 0 24 25" fill="none" xmlns="http://www.w3.org/2000/svg">
<g clip-path="url(#clip0_465_2513)">
<path d="M12.3998 2.29999C16.5998 2.29999 19.9998 5.69999 19.9998 9.89999C19.9998 11 19.7998 12 19.3998 12.9C18.0998 16 15.1998 19.8 12.3998 22.3C9.6998 19.8 6.6998 16 5.3998 12.9C4.9998 12 4.7998 10.9 4.7998 9.89999C4.7998 5.69999 8.1998 2.29999 12.3998 2.29999Z" stroke="#F57C00" stroke-width="1.5" stroke-miterlimit="10"/>
<path d="M12.3998 12.4C13.7998 12.4 14.9998 11.3 14.9998 9.79999C14.9998 8.29999 13.7998 7.29999 12.3998 7.29999C10.9998 7.29999 9.7998 8.39999 9.7998 9.89999C9.7998 11.4 10.8998 12.4 12.3998 12.4Z" fill="#272B37" stroke="#F57C00" stroke-width="1.5" stroke-miterlimit="10"/>
</g>
<defs>
<clipPath id="clip0_465_2513">
<rect width="16.7" height="21.8" fill="white" transform="translate(4 1.5)"/>
</clipPath>
</defs>
</svg>
