<svg width="32" height="32" viewBox="0 0 32 32" fill="none" xmlns="http://www.w3.org/2000/svg">
<path d="M27.9795 10.4322C29.2952 11.8821 30.3641 13.5149 30.8666 15.5677C31.068 16.5682 31.0424 17.5342 30.7758 18.4599C30.6524 18.7156 30.109 18.4017 29.4838 18.0303C28.3765 17.3705 28.3222 16.8904 27.8561 15.7454C27.1165 13.924 27.1529 14.5256 25.4223 12.9856C24.2064 13.3135 22.8523 13.0022 21.8992 12.0471C20.8827 11.0306 20.5924 9.56084 21.0329 8.28864L19.7013 6.95698L19.4187 7.23763C19.0274 7.6308 18.3856 7.6308 17.9943 7.23763L16.8979 6.14315C16.5067 5.74998 16.5067 5.11005 16.8979 4.7188L20.3233 1.29344C20.7145 0.902187 21.3545 0.902187 21.7457 1.29344L22.8421 2.38983C23.2353 2.78108 23.2353 3.42294 22.8421 3.81419L22.5615 4.09676L24.3087 5.84396C25.2926 5.80049 26.2911 6.15402 27.0417 6.90583C27.9968 7.86094 28.31 9.21434 27.9802 10.4322H27.9795Z" stroke="#20232B" stroke-width="2" stroke-miterlimit="10" stroke-linejoin="round"/>
<path d="M21.0125 10.6021L4.84782 24.7804C4.19574 25.3532 4.16121 26.3243 4.77558 26.9387L5.76138 27.9245L5.89179 28.0549L6.87759 29.0407C7.49196 29.655 8.46305 29.6205 9.03586 28.9684L23.158 12.8671" stroke="#20232B" stroke-width="2" stroke-miterlimit="10"/>
<path d="M11.2753 5.79662C9.76915 4.29044 7.59873 3.8538 5.70449 4.4867L9.25835 8.04056L5.83491 11.4653L2.28169 7.91142C1.64751 9.8031 2.08415 11.9742 3.59161 13.4823C5.71344 15.6041 9.15351 15.6041 11.2753 13.4823C13.3991 11.3604 13.3991 7.91909 11.2753 5.79662Z" stroke="#20232B" stroke-width="2" stroke-miterlimit="10" stroke-linejoin="round"/>
<path d="M12.8167 10.3958C13.6593 11.6513 14.3101 12.5815 15.2121 13.6504M20.0759 18.7098L26.5507 25.1846C27.5365 26.1704 27.5365 27.7687 26.5507 28.7545C25.5649 29.7403 23.9648 29.7403 22.979 28.7545L16.7375 22.513M11.1743 17.1909C10.2154 16.4007 9.33891 15.7901 8.18945 15.0198" stroke="#20232B" stroke-width="2" stroke-miterlimit="10"/>
</svg>
