<svg width="48" height="48" viewBox="0 0 48 48" fill="none" xmlns="http://www.w3.org/2000/svg">
<path fill-rule="evenodd" clip-rule="evenodd" d="M20.1001 43.9998V36.6998C23.6001 35.8998 27.8001 33.6998 31.9001 30.2998C32.4001 34.0998 31.4001 37.8998 28.6001 40.5998C26.3001 42.8998 23.2001 43.9998 20.1001 43.9998Z" stroke="#E0E4E9" stroke-width="2" stroke-miterlimit="10"/>
<path fill-rule="evenodd" clip-rule="evenodd" d="M4.5 28.4002H11.9C12.7 24.9002 14.9 20.7002 18.2 16.6002C14.5 16.1002 10.6 17.1002 7.9 19.9002C5.6 22.2002 4.5 25.3002 4.5 28.4002Z" stroke="#E0E4E9" stroke-width="2" stroke-miterlimit="10"/>
<path d="M43.2998 5.20002C40.9998 2.90002 29.4998 5.00002 21.1998 13.3C16.1998 18.3 12.8998 23.9 11.7998 28.4H12.5998C16.6998 28.4 20.0998 31.8 20.0998 35.9V36.7C24.5998 35.7 30.1998 32.3 35.1998 27.3C43.4998 18.9 45.5998 7.40002 43.2998 5.20002Z" stroke="#E0E4E9" stroke-width="2" stroke-miterlimit="10"/>
<path fill-rule="evenodd" clip-rule="evenodd" d="M14.9 33.5998C13 31.6998 9.9 31.6998 8 33.5998C5.8 35.7998 4.4 41.6998 4 44.4998C6.8 44.1998 12.7 42.7998 14.9 40.4998C16.8 38.5998 16.8 35.4998 14.9 33.5998Z" fill="#F57C00"/>
<path d="M28.0001 23.9001C29.9001 23.9001 31.4001 22.4001 31.4001 20.5001C31.4001 18.6001 29.9001 17.1001 28.0001 17.1001C26.1001 17.1001 24.6001 18.6001 24.6001 20.5001C24.6001 22.3001 26.1001 23.9001 28.0001 23.9001Z" stroke="#E0E4E9" stroke-width="2" stroke-miterlimit="10"/>
</svg>
