<svg width="16" height="16" viewBox="0 0 16 16" fill="none" xmlns="http://www.w3.org/2000/svg">
<g clip-path="url(#clip0_349_947)">
<path d="M15.6719 11.4351C15.4875 12.046 14.9469 12.5286 14.2625 12.6932C13.0094 13 8 13 8 13C8 13 2.99062 13 1.74063 12.7071C1.06875 12.5425 0.515625 12.0488 0.33125 11.4379C0 10.3166 0 8.0014 0 8.0014C0 8.0014 0 5.67225 0.328125 4.56764C0.5125 3.95677 1.05312 3.4742 1.7375 3.30962C3.00312 3.00279 7.99687 3.00279 7.99687 3.00279C7.99687 3.00279 13.0063 3.00279 14.2563 3.29568C14.9406 3.46025 15.4812 3.94282 15.6656 4.5537C16 5.67225 16 7.98745 16 7.98745C16 7.98745 16.0125 10.3166 15.6719 11.4351ZM6.40625 5.85914V10.1409L10.5719 7.99861L6.40625 5.85914Z" fill="black"/>
</g>
<defs>
<clipPath id="clip0_349_947">
<rect width="16" height="10" fill="white" transform="matrix(1 0 0 -1 0 13)"/>
</clipPath>
</defs>
</svg>
